<svg fill="#000000" width="256px" height="256px" viewBox="0 0 24 24" id="chat-alert-4" data-name="Flat Color" xmlns="http://www.w3.org/2000/svg" class="icon flat-color"><g id="SVGRepo_bgCarrier" stroke-width="0"></g><g id="SVGRepo_tracerCarrier" stroke-linecap="round" stroke-linejoin="round"></g><g id="SVGRepo_iconCarrier"><path id="primary" d="M21.05,16.26A10,10,0,0,0,9,2.48,9.9,9.9,0,0,0,3.11,7.42,10,10,0,0,0,12,22a9.19,9.19,0,0,0,1.65-.14,9.78,9.78,0,0,0,2.61-.81l3.06.63a2,2,0,0,0,1.5-.29,2,2,0,0,0,.86-1.27,1.8,1.8,0,0,0,0-.8Z" style="fill: #080808;"></path><path id="secondary" d="M12,14a1.5,1.5,0,1,1-1.5,1.5A1.5,1.5,0,0,1,12,14Zm0-2a1,1,0,0,0,1-1V8a1,1,0,0,0-2,0v3A1,1,0,0,0,12,12Z" style="fill: #1eacc2;"></path></g></svg>